Coordinates
version=1
nRows=12
nColumns=34
inDegrees=no

Units are S.I. units (second, meters, Newtons, ...)
If the header above contains a line with 'inDegrees', this indicates whether rotational values are in degrees (yes) or radians (no).

endheader
time	pelvis_tilt	pelvis_list	pelvis_rotation	pelvis_tx	pelvis_ty	pelvis_tz	hip_flexion_r	hip_adduction_r	hip_rotation_r	knee_angle_r	ankle_angle_r	subtalar_angle_r	mtp_angle_r	hip_flexion_l	hip_adduction_l	hip_rotation_l	knee_angle_l	ankle_angle_l	subtalar_angle_l	mtp_angle_l	lumbar_extension	lumbar_bending	lumbar_rotation	arm_flex_r	arm_add_r	arm_rot_r	elbow_flex_r	pro_sup_r	arm_flex_l	arm_add_l	arm_rot_l	elbow_flex_l	pro_sup_l
0.46	0.198066	-0.0547981	0.0272544	0.379951	1.06276	-0.150054	-0.351808	0.165366	-0.235182	0.101049	0.344718	0.378118	-0.0919001	0.27767	-0.17879	-0.366147	0.20461	0.168903	0.468107	-0.107828	-0.559233	-0.35795	0.146355	0.00384458	-0.273113	-0.0984385	1.11358	1.66221	-0.142446	-0.199029	-0.318832	0.443673	1.64693
0.47	0.198015	-0.054385	0.0281684	0.392547	1.06003	-0.150205	-0.358518	0.162245	-0.251436	0.116792	0.366274	0.397028	-0.0919021	0.27423	-0.170147	-0.367894	0.160057	0.178035	0.499379	-0.107665	-0.56257	-0.367066	0.147729	-0.000670782	-0.279505	-0.103783	1.13101	1.66433	-0.156375	-0.195881	-0.321192	0.438023	1.64744
0.48	0.198309	-0.0541211	0.0291096	0.405296	1.05729	-0.150487	-0.365056	0.158928	-0.266681	0.133766	0.386551	0.413656	-0.0919042	0.271582	-0.162397	-0.366318	0.124323	0.187344	0.519795	-0.107503	-0.566035	-0.375674	0.149326	-0.00622432	-0.28517	-0.110046	1.14748	1.66695	-0.170151	-0.192648	-0.322997	0.434148	1.64595
0.49	0.198869	-0.0540458	0.029915	0.418203	1.05458	-0.150852	-0.371508	0.155483	-0.280231	0.151632	0.40506	0.427514	-0.0919063	0.270177	-0.156214	-0.363178	0.0988445	0.195969	0.529677	-0.10734	-0.569479	-0.383863	0.151254	-0.0128117	-0.28997	-0.117061	1.16288	1.66973	-0.183613	-0.189412	-0.324464	0.431692	1.64261
0.5	0.199578	-0.0541164	0.0304722	0.43127	1.05192	-0.151258	-0.377896	0.15191	-0.291565	0.170072	0.421399	0.438245	-0.0919084	0.270344	-0.152007	-0.360114	0.0844247	0.202925	0.530244	-0.107177	-0.572766	-0.391789	0.153498	-0.02038	-0.293762	-0.124611	1.17708	1.67235	-0.196605	-0.186276	-0.325835	0.430341	1.63771
0.51	0.200299	-0.0541961	0.0307201	0.444507	1.04935	-0.151675	-0.384174	0.148127	-0.300378	0.188845	0.435276	0.445642	-0.0919105	0.272201	-0.149838	-0.358264	0.080998	0.207149	0.523219	-0.107015	-0.575793	-0.399676	0.155924	-0.0288311	-0.296403	-0.132441	1.18989	1.67457	-0.208975	-0.183353	-0.327365	0.429841	1.63164
0.52	0.200897	-0.0540714	0.0306466	0.457924	1.04686	-0.152085	-0.390222	0.143982	-0.306584	0.207824	0.446509	0.449611	-0.0919126	0.275607	-0.149415	-0.358048	0.0875764	0.207611	0.51044	-0.106852	-0.578506	-0.407788	0.1583	-0.0380288	-0.297762	-0.140284	1.20112	1.67623	-0.22058	-0.180749	-0.329298	0.429991	1.62486
0.53	0.201257	-0.0534697	0.0302829	0.471525	1.0445	-0.152502	-0.395841	0.139286	-0.310311	0.227053	0.454992	0.450123	-0.0919147	0.280199	-0.150168	-0.359182	0.102389	0.203468	0.493586	-0.106689	-0.5809	-0.416387	0.16033	-0.0478076	-0.297732	-0.147874	1.21057	1.67729	-0.231281	-0.178557	-0.331855	0.430633	1.61787
0.54	0.201286	-0.052128	0.0297042	0.485308	1.04232	-0.152944	-0.400747	0.133838	-0.311878	0.246769	0.460648	0.447163	-0.0919168	0.285475	-0.151361	-0.360886	0.123196	0.194251	0.474058	-0.106526	-0.583022	-0.425697	0.161684	-0.0579821	-0.296238	-0.154969	1.21802	1.67784	-0.240943	-0.176841	-0.335205	0.431641	1.61115
0.55	0.20091	-0.0498285	0.0290226	0.499259	1.04032	-0.153442	-0.404568	0.127461	-0.311753	0.267428	0.463366	0.440676	-0.0919189	0.290925	-0.15224	-0.362211	0.147677	0.180019	0.452994	-0.106364	-0.584951	-0.435854	0.162038	-0.0683577	-0.293249	-0.161364	1.22329	1.67813	-0.249436	-0.17564	-0.339452	0.4329	1.60512
0.56	0.200075	-0.0464344	0.0283789	0.513352	1.03855	-0.154025	-0.406842	0.120027	-0.310513	0.289688	0.462935	0.430528	-0.091921	0.296146	-0.152171	-0.362344	0.173794	0.161422	0.431332	-0.106201	-0.586784	-0.446875	0.161099	-0.0787428	-0.288785	-0.166898	1.22623	1.67854	-0.256635	-0.17496	-0.344617	0.434303	1.60011
0.57	0.198736	-0.0419071	0.0279308	0.527553	1.03702	-0.154727	-0.407036	0.111453	-0.308794	0.31437	0.458982	0.416482	-0.0919231	0.300908	-0.150728	-0.360806	0.200032	0.139666	0.409862	-0.106038	-0.588611	-0.458647	0.158629	-0.0889608	-0.282924	-0.17146	1.22674	1.67958	-0.262429	-0.17478	-0.350634	0.435743	1.59637
